#tb 0: 1/15
#media_type 0: video
#codec_id 0: rawvideo
#dimensions 0: 548x400
#sar 0: 0/1
#tb 1: 1/11025
#media_type 1: audio
#codec_id 1: pcm_s16le
#sample_rate 1: 11025
#channel_layout_name 1: mono
0,          0,          0,        1,   657600, 0x50b3a0c2
1,          0,          0,    11025,    22050, 0x1740aaec
0,          3,          3,        1,   657600, 0x661aa145
1,      11025,      11025,    11025,    22050, 0x75ed6086
0,         21,         21,        1,   657600, 0x3c29a73f
0,         24,         24,        1,   657600, 0xee2ca145
0,         30,         30,        1,   657600, 0xeb6fa442
1,      22050,      22050,    11025,    22050, 0xca52a4e9
0,         33,         33,        1,   657600, 0xb235a145
0,         36,         36,        1,   657600, 0x39f7ad39
0,         39,         39,        1,   657600, 0xb851abda
0,         42,         42,        1,   657600, 0xf6574b22
0,         43,         43,        1,   657600, 0x1a154a9f
0,         44,         44,        1,   657600, 0x3de64916
0,         45,         45,        1,   657600, 0xca3d9cd5
1,      33075,      33075,    11025,    22050, 0xb306d419
0,         47,         47,        1,   657600, 0x4779a2cf
0,         57,         57,        1,   657600, 0x29af1818
0,         60,         60,        1,   657600, 0x77ace9c5
1,      44100,      44100,    11025,    22050, 0x8cbb9625
0,         62,         62,        1,   657600, 0x61b8e74b
0,         63,         63,        1,   657600, 0x8c6deace
0,         66,         66,        1,   657600, 0xbe1fe8d7
0,         69,         69,        1,   657600, 0x633209db
0,         72,         72,        1,   657600, 0x3148adb5
0,         74,         74,        1,   657600, 0x3b5f5216
1,      55125,      55125,    11025,    22050, 0x34a11f66
0,         78,         78,        1,   657600, 0x5e51fb89
0,         80,         80,        1,   657600, 0x48eafb06
0,         81,         81,        1,   657600, 0x9f7a8653
0,         83,         83,        1,   657600, 0x29fc83d9
0,         84,         84,        1,   657600, 0xe7689f10
0,         85,         85,        1,   657600, 0x9f788dba
0,         86,         86,        1,   657600, 0x0e808eb2
0,         87,         87,        1,   657600, 0x3ec53d79
0,         88,         88,        1,   657600, 0x67ca3a7c
0,         89,         89,        1,   657600, 0xf7583802
0,         90,         90,        1,   657600, 0x239e2fc6
1,      66150,      66150,    11025,    22050, 0x1ae81230
0,         93,         93,        1,   657600, 0x001c134c
0,         94,         94,        1,   657600, 0x5c85134c
0,         99,         99,        1,   657600, 0x5fef8bea
0,        101,        101,        1,   657600, 0x23135efa
1,      77175,      77175,    11025,    22050, 0x1217eeba
0,        108,        108,        1,   657600, 0x50cf63ee
0,        111,        111,        1,   657600, 0x2f5c5efa
0,        114,        114,        1,   657600, 0x9980d3c1
0,        117,        117,        1,   657600, 0x23f02141
0,        120,        120,        1,   657600, 0x3d31ea57
1,      88200,      88200,    11025,    22050, 0x50e70baa
0,        121,        121,        1,   657600, 0x1e9be92f
0,        123,        123,        1,   657600, 0x05091a2e
0,        126,        126,        1,   657600, 0xd214c71a
0,        129,        129,        1,   657600, 0x3b07f720
0,        132,        132,        1,   657600, 0x02becc42
0,        133,        133,        1,   657600, 0x3d8fcf2e
0,        135,        135,        1,   657600, 0xec51ddd7
1,      99225,      99225,    11025,    22050, 0xb19e89c0
0,        141,        141,        1,   657600, 0x40a3b905
0,        143,        143,        1,   657600, 0xbfc5baa9
0,        150,        150,        1,   657600, 0x54a2f8dd
1,     110250,     110250,    11025,    22050, 0x78526696
0,        151,        151,        1,   657600, 0x0b96f90d
0,        153,        153,        1,   657600, 0xa18119e9
0,        154,        154,        1,   657600, 0x70a11ce6
0,        155,        155,        1,   657600, 0xb36f19e9
0,        156,        156,        1,   657600, 0xeb2219e9
0,        159,        159,        1,   657600, 0xb98f19e9
0,        160,        160,        1,   657600, 0xa4281966
0,        161,        161,        1,   657600, 0xf0e61966
0,        162,        162,        1,   657600, 0x065c19e9
1,     121275,     121275,    11025,    22050, 0x48e3bb21
0,        171,        171,        1,   657600, 0x2f1d1ce6
0,        173,        173,        1,   657600, 0x181719e9
0,        174,        174,        1,   657600, 0x938d1ce6
0,        177,        177,        1,   657600, 0xf0acbabf
0,        180,        180,        1,   657600, 0x0f47804f
1,     132300,     132300,    11025,    22050, 0xbc32204a
0,        182,        182,        1,   657600, 0x5e0c7a55
0,        183,        183,        1,   657600, 0x0c8f4374
0,        184,        184,        1,   657600, 0x709a3b00
0,        186,        186,        1,   657600, 0xf57b7a0f
0,        187,        187,        1,   657600, 0x99427f1b
0,        189,        189,        1,   657600, 0xcb3608e7
0,        190,        190,        1,   657600, 0x0992fd64
0,        192,        192,        1,   657600, 0x7a95fa02
0,        195,        195,        1,   657600, 0xb97dd910
1,     143325,     143325,    11025,    22050, 0xdf6f1e46
0,        198,        198,        1,   657600, 0x3be07a66
0,        200,        200,        1,   657600, 0x1ae77960
0,        201,        201,        1,   657600, 0x62177f5a
0,        202,        202,        1,   657600, 0xf57c7c5d
0,        203,        203,        1,   657600, 0x600e7960
0,        204,        204,        1,   657600, 0xe15d7960
0,        205,        205,        1,   657600, 0x79427663
0,        207,        207,        1,   657600, 0xa7c77960
0,        209,        209,        1,   657600, 0x75f67663
0,        210,        210,        1,   657600, 0x3a157960
1,     154350,     154350,    11025,    22050, 0x4c91da9d
0,        211,        211,        1,   657600, 0x72aa7663
0,        213,        213,        1,   657600, 0x1b277663
0,        216,        216,        1,   657600, 0x6f5e7663
